<?xml version="1.0" encoding="utf-8"?>
<!-- Generator: Adobe Illustrator 26.0.3, SVG Export Plug-In . SVG Version: 6.00 Build 0)  -->
<svg version="1.1" id="Layer_1" xmlns="http://www.w3.org/2000/svg" xmlns:xlink="http://www.w3.org/1999/xlink" x="0px" y="0px"
	 viewBox="0 0 500 500" style="enable-background:new 0 0 500 500;" xml:space="preserve">
<style type="text/css">
	.st0{fill:none;stroke:#0054A0;stroke-width:6;stroke-linecap:round;stroke-linejoin:round;}
	.st1{fill:#FFFFFF;stroke:#0054A0;stroke-width:6;stroke-linecap:round;stroke-linejoin:round;}
	.st2{fill:#FFFFFF;stroke:#0054A0;stroke-width:4;stroke-linecap:round;stroke-linejoin:round;}
	.st3{fill:none;stroke:#0054A0;stroke-width:7;stroke-linecap:round;stroke-linejoin:round;}
	.st4{fill:#DE9D27;stroke:#0054A0;stroke-width:6;stroke-linecap:round;stroke-linejoin:round;}
	.st5{fill:#FFFFFF;stroke:#0054A0;stroke-width:7;stroke-linecap:round;stroke-linejoin:round;}
	.st6{fill:#C3CAE4;stroke:#0054A0;stroke-width:5;stroke-linejoin:round;}
	.st7{fill:#C3CAE3;stroke:#0054A0;stroke-width:5;stroke-linejoin:round;}
	.st8{fill:#0055A0;stroke:#0054A0;stroke-linejoin:round;}
</style>
<g>
	<rect x="261" y="228.5" class="st0" width="71.6" height="198.8"/>
	<rect x="64.7" y="83.7" class="st1" width="209.7" height="264.5"/>
	<rect x="307.5" y="156.7" class="st1" width="131.6" height="196.2"/>
	<rect x="307.5" y="375.9" class="st2" width="131.6" height="52.8"/>
	<rect x="64.7" y="375.9" class="st2" width="209.7" height="52.5"/>
	<line class="st3" x1="79.7" y1="348.2" x2="79.7" y2="374.9"/>
	<line class="st3" x1="100.1" y1="348.2" x2="100.1" y2="374.9"/>
	<line class="st3" x1="120.4" y1="348.2" x2="120.4" y2="374.9"/>
	<line class="st3" x1="140.7" y1="348.2" x2="140.7" y2="374.9"/>
	<line class="st3" x1="161" y1="348.2" x2="161" y2="374.9"/>
	<line class="st3" x1="181.4" y1="348.2" x2="181.4" y2="374.9"/>
	<line class="st3" x1="201.7" y1="348.2" x2="201.7" y2="374.9"/>
	<line class="st3" x1="222" y1="348.2" x2="222" y2="374.9"/>
	<line class="st3" x1="242.4" y1="348.2" x2="242.4" y2="374.9"/>
	<line class="st3" x1="332.6" y1="352.8" x2="332.6" y2="374.9"/>
	<line class="st3" x1="352.9" y1="352.8" x2="352.9" y2="374.9"/>
	<line class="st3" x1="373.3" y1="352.8" x2="373.3" y2="374.9"/>
	<line class="st3" x1="393.6" y1="352.8" x2="393.6" y2="374.9"/>
	<line class="st3" x1="413.9" y1="352.8" x2="413.9" y2="374.9"/>
	<g>
		<rect x="117.5" y="311.8" class="st1" width="22" height="22"/>
		<rect x="117.5" y="276.2" class="st4" width="22" height="22"/>
		<rect x="117.5" y="240.7" class="st1" width="22" height="22"/>
		<rect x="117.5" y="205.2" class="st1" width="22" height="22"/>
		<rect x="117.5" y="169.6" class="st1" width="22" height="22"/>
		<rect x="76.9" y="311.8" class="st1" width="22" height="22"/>
		<rect x="76.9" y="276.2" class="st1" width="22" height="22"/>
		<rect x="76.9" y="240.7" class="st1" width="22" height="22"/>
		<rect x="76.9" y="205.2" class="st1" width="22" height="22"/>
		<rect x="76.9" y="169.6" class="st1" width="22" height="22"/>
	</g>
	<g>
		<rect x="362.3" y="315.9" class="st1" width="22.8" height="22.8"/>
		<rect x="362.3" y="279.2" class="st1" width="22.8" height="22.8"/>
		<rect x="362.3" y="242.5" class="st4" width="22.8" height="22.8"/>
		<rect x="362.3" y="205.7" class="st1" width="22.8" height="22.8"/>
		<rect x="362.3" y="169" class="st1" width="22.8" height="22.8"/>
		<rect x="320.2" y="315.9" class="st1" width="22.8" height="22.8"/>
		<rect x="320.2" y="279.2" class="st1" width="22.8" height="22.8"/>
		<rect x="320.2" y="242.5" class="st1" width="22.8" height="22.8"/>
		<rect x="320.2" y="205.7" class="st1" width="22.8" height="22.8"/>
		<rect x="320.2" y="169" class="st1" width="22.8" height="22.8"/>
	</g>
	<g>
		<rect x="402.4" y="315.9" class="st1" width="22.8" height="22.8"/>
		<rect x="402.4" y="279.2" class="st1" width="22.8" height="22.8"/>
		<rect x="402.4" y="242.5" class="st1" width="22.8" height="22.8"/>
		<rect x="402.4" y="205.7" class="st1" width="22.8" height="22.8"/>
		<rect x="402.4" y="169" class="st1" width="22.8" height="22.8"/>
	</g>
	<g>
		<rect x="198.3" y="311.8" class="st1" width="22" height="22"/>
		<rect x="198.3" y="276.2" class="st1" width="22" height="22"/>
		<rect x="198.3" y="240.7" class="st1" width="22" height="22"/>
		<rect x="198.3" y="205.2" class="st4" width="22" height="22"/>
		<rect x="198.3" y="169.6" class="st1" width="22" height="22"/>
		<rect x="157.6" y="311.8" class="st1" width="22" height="22"/>
		<rect x="157.6" y="276.2" class="st1" width="22" height="22"/>
		<rect x="157.6" y="240.7" class="st1" width="22" height="22"/>
		<rect x="157.6" y="205.2" class="st1" width="22" height="22"/>
		<rect x="157.6" y="169.6" class="st1" width="22" height="22"/>
	</g>
	<g>
		<rect x="239" y="311.8" class="st1" width="22" height="22"/>
		<rect x="239" y="276.2" class="st1" width="22" height="22"/>
		<rect x="239" y="240.7" class="st1" width="22" height="22"/>
		<rect x="239" y="205.2" class="st1" width="22" height="22"/>
		<rect x="239" y="169.6" class="st1" width="22" height="22"/>
	</g>
	<g>
		<rect x="117.5" y="134.5" class="st4" width="22" height="22"/>
		<rect x="117.5" y="99" class="st1" width="22" height="22"/>
		<rect x="76.9" y="134.5" class="st1" width="22" height="22"/>
		<rect x="76.9" y="99" class="st1" width="22" height="22"/>
	</g>
	<g>
		<rect x="198.3" y="134.5" class="st1" width="22" height="22"/>
		<rect x="198.3" y="99" class="st1" width="22" height="22"/>
		<rect x="157.6" y="134.5" class="st1" width="22" height="22"/>
		<rect x="157.6" y="99" class="st1" width="22" height="22"/>
	</g>
	<g>
		<rect x="239" y="134.5" class="st1" width="22" height="22"/>
		<rect x="239" y="99" class="st1" width="22" height="22"/>
	</g>
	<g>
		<rect x="140.7" y="394.9" class="st5" width="48.4" height="32.4"/>
		<line class="st3" x1="164.9" y1="394.9" x2="164.9" y2="427.3"/>
	</g>
	<g>
		<rect x="349.1" y="394.9" class="st5" width="48.4" height="32.4"/>
		<line class="st3" x1="373.3" y1="394.9" x2="373.3" y2="427.3"/>
	</g>
	<rect x="87.2" y="68.6" class="st6" width="162.8" height="15.1"/>
	<rect x="111" y="53.5" class="st7" width="115.3" height="15.1"/>
	<rect x="44.5" y="427.3" class="st8" width="411" height="19.2"/>
</g>
</svg>
