<svg width="72" height="70" viewBox="0 0 72 70" fill="none" xmlns="http://www.w3.org/2000/svg">
<path d="M70.9271 67.0928V68.5012H69.1474V1.29498H57.1932V68.5012H54.524V67.0928H53.4511V68.5012H51.5932V30.0286H39.6405V68.5012H37.0481V67.0928H35.9759V68.5012H34.0398V15.4908H22.0863V68.5012H19.5714V67.0928H18.4985V68.5012H16.4864V45.6416H4.53362V68.5012H1.07219V61.4497H2.70132V60.376H1.07219V51.4579H2.70132V50.3857H1.07219V41.4661H2.70132V40.3939H1.07219V31.4743H2.70132V30.4021H1.07219V21.4825H2.70132V20.4096H1.07219V11.4914H2.70132V10.4185H1.07219V1.49962H2.70132V0.426697H1.07219H0.419522H0.38371H0V68.5012V69.5734H1.07219H68.847H68.8945H69.1474H72V69.4096V69.3738V68.5012V67.0928H70.9271Z" fill="#0054A0"/>
</svg>
