<svg width="75" height="87" viewBox="0 0 75 87" fill="none" xmlns="http://www.w3.org/2000/svg">
<path d="M52.5246 51.1267C52.4271 55.3155 45.7371 58.6974 37.5005 58.6974C29.2618 58.6974 22.574 55.3155 22.4764 51.1267C9.87254 52.1965 0 62.0311 0 74.0073C0 86.6971 11.0831 86.6663 24.7535 86.6663H50.2486C63.9179 86.6663 75 86.6971 75 74.0073C75 62.0311 65.1306 52.1965 52.5246 51.1267Z" fill="#0054A0"/>
<path d="M11.2769 12.1695L13.0467 12.8802L12.8963 13.9837C12.2189 14.0906 11.7012 14.6376 11.7012 15.2982C11.7012 15.8923 12.1172 16.3959 12.6971 16.5654L11.6224 30.532C11.5767 31.1146 11.7043 32.0458 11.9025 32.5985L12.7738 35.0271C12.973 35.5817 13.2977 35.5817 13.4969 35.0271L14.3693 32.5985C14.5674 32.0448 14.694 31.1146 14.6494 30.532L13.5757 16.5654C14.1504 16.393 14.5706 15.8913 14.5706 15.2982C14.5706 14.6376 14.0529 14.0916 13.3724 13.9837L13.2355 12.9582L17.3216 14.6L19.3227 15.4031V22.3884C19.0945 23.1558 18.8984 23.9358 18.7739 24.7408C18.6308 25.6566 18.5582 26.5945 18.5582 27.5488C18.5582 27.9378 18.5748 28.3211 18.5965 28.7034C18.6329 29.2619 18.6889 29.8137 18.7739 30.3577C18.7864 30.5243 18.803 30.688 18.8185 30.8527C20.0157 43.399 27.9224 53.092 37.5003 53.092C47.0762 53.092 54.985 43.399 56.1811 30.8527C56.1967 30.688 56.2101 30.5243 56.2257 30.3577C56.3108 29.8137 56.3668 29.2619 56.401 28.7034C56.4259 28.3211 56.4415 27.9378 56.4415 27.5488C56.4415 26.5945 56.3668 25.6566 56.2257 24.7408C56.1002 23.9387 55.9052 23.1616 55.679 22.397V15.4022L57.6801 14.5991L63.7258 12.1695C65.3067 11.534 65.3067 10.4959 63.7258 9.86037L40.3749 0.477383C38.7939 -0.159128 36.2078 -0.159128 34.6258 0.477383L11.2759 9.86037C9.69497 10.4959 9.69497 11.5349 11.2769 12.1695Z" fill="#0054A0"/>
</svg>
