<svg xmlns="http://www.w3.org/2000/svg" width="148" height="90" viewBox="0 0 148 90">
    <g fill="#F3BD51" fill-rule="nonzero">
        <g transform="translate(64 61)">
            <circle cx="9.5" cy="5.5" r="5.5"/>
            <path d="M10.004 20L10 19.996l.5-.996zM11.923 14.419l-1.47 1.675.91.834.006.007-.81 1.345-.43.72-.002-.003-1.383-2.167.803-.736-1.47-1.675a.305.305 0 0 1 0-.406l1.666-1.904A.352.352 0 0 1 10 12c.098 0 .191.04.257.11l1.666 1.903a.305.305 0 0 1 0 .406z"/>
            <path d="M15.374 12h-.161L10.2 20.809a.615.615 0 0 1-.396.299.535.535 0 0 1-.158.022.642.642 0 0 1-.551-.302L3.699 12h-.073C1.636 11.99.015 13.583 0 15.56v11.504A1.955 1.955 0 0 0 1.966 29h15.068A1.955 1.955 0 0 0 19 27.064V15.56c-.015-1.978-1.637-3.57-3.626-3.561zm.46 6.926h-1.9a.631.631 0 0 1-.634-.63c0-.347.284-.63.633-.63h1.9c.35 0 .634.283.634.63 0 .348-.284.63-.634.63z"/>
            <path d="M11 17.005L10 18l.992-1z"/>
        </g>
        <g transform="translate(129 61)">
            <circle cx="9.5" cy="5.5" r="5.5"/>
            <path d="M10.004 20L10 19.996l.5-.996zM11.923 14.419l-1.47 1.675.91.834.006.007-.81 1.345-.43.72-.002-.003-1.383-2.167.803-.736-1.47-1.675a.305.305 0 0 1 0-.406l1.666-1.904A.352.352 0 0 1 10 12c.098 0 .191.04.257.11l1.666 1.903a.305.305 0 0 1 0 .406z"/>
            <path d="M15.374 12h-.161L10.2 20.809a.615.615 0 0 1-.396.299.535.535 0 0 1-.158.022.642.642 0 0 1-.551-.302L3.699 12h-.073C1.636 11.99.015 13.583 0 15.56v11.504A1.955 1.955 0 0 0 1.966 29h15.068A1.955 1.955 0 0 0 19 27.064V15.56c-.015-1.978-1.637-3.57-3.626-3.561zm.46 6.926h-1.9a.631.631 0 0 1-.634-.63c0-.347.284-.63.633-.63h1.9c.35 0 .634.283.634.63 0 .348-.284.63-.634.63z"/>
            <path d="M11 17.005L10 18l.992-1z"/>
        </g>
        <g transform="translate(107 61)">
            <circle cx="9.5" cy="5.5" r="5.5"/>
            <path d="M10.004 20L10 19.996l.5-.996zM11.923 14.419l-1.47 1.675.91.834.006.007-.81 1.345-.43.72-.002-.003-1.383-2.167.803-.736-1.47-1.675a.305.305 0 0 1 0-.406l1.666-1.904A.352.352 0 0 1 10 12c.098 0 .191.04.257.11l1.666 1.903a.305.305 0 0 1 0 .406z"/>
            <path d="M15.374 12h-.161L10.2 20.809a.615.615 0 0 1-.396.299.535.535 0 0 1-.158.022.642.642 0 0 1-.551-.302L3.699 12h-.073C1.636 11.99.015 13.583 0 15.56v11.504A1.955 1.955 0 0 0 1.966 29h15.068A1.955 1.955 0 0 0 19 27.064V15.56c-.015-1.978-1.637-3.57-3.626-3.561zm.46 6.926h-1.9a.631.631 0 0 1-.634-.63c0-.347.284-.63.633-.63h1.9c.35 0 .634.283.634.63 0 .348-.284.63-.634.63z"/>
            <path d="M11 17.005L10 18l.992-1z"/>
        </g>
        <g transform="translate(43 61)">
            <circle cx="9.5" cy="5.5" r="5.5"/>
            <path d="M10.004 20L10 19.996l.5-.996zM11.923 14.419l-1.47 1.675.91.834.006.007-.81 1.345-.43.72-.002-.003-1.383-2.167.803-.736-1.47-1.675a.305.305 0 0 1 0-.406l1.666-1.904A.352.352 0 0 1 10 12c.098 0 .191.04.257.11l1.666 1.903a.305.305 0 0 1 0 .406z"/>
            <path d="M15.374 12h-.161L10.2 20.809a.615.615 0 0 1-.396.299.535.535 0 0 1-.158.022.642.642 0 0 1-.551-.302L3.699 12h-.073C1.636 11.99.015 13.583 0 15.56v11.504A1.955 1.955 0 0 0 1.966 29h15.068A1.955 1.955 0 0 0 19 27.064V15.56c-.015-1.978-1.637-3.57-3.626-3.561zm.46 6.926h-1.9a.631.631 0 0 1-.634-.63c0-.347.284-.63.633-.63h1.9c.35 0 .634.283.634.63 0 .348-.284.63-.634.63z"/>
            <path d="M11 17.005L10 18l.992-1z"/>
        </g>
        <g transform="translate(42)">
            <circle cx="9.5" cy="5.5" r="5.5"/>
            <path d="M10.004 20L10 19.996l.5-.996zM11.923 14.419l-1.47 1.675.91.834.006.007-.81 1.345-.43.72-.002-.003-1.383-2.167.803-.736-1.47-1.675a.305.305 0 0 1 0-.406l1.666-1.904A.352.352 0 0 1 10 12c.098 0 .191.04.257.11l1.666 1.903a.305.305 0 0 1 0 .406z"/>
            <path d="M15.374 12h-.161L10.2 20.809a.615.615 0 0 1-.396.299.535.535 0 0 1-.158.022.642.642 0 0 1-.551-.302L3.699 12h-.073C1.636 11.99.015 13.583 0 15.56v11.504A1.955 1.955 0 0 0 1.966 29h15.068A1.955 1.955 0 0 0 19 27.064V15.56c-.015-1.978-1.637-3.57-3.626-3.561zm.46 6.926h-1.9a.631.631 0 0 1-.634-.63c0-.347.284-.63.633-.63h1.9c.35 0 .634.283.634.63 0 .348-.284.63-.634.63z"/>
            <path d="M11 17.005L10 18l.992-1z"/>
        </g>
        <g transform="translate(86)">
            <circle cx="9.5" cy="5.5" r="5.5"/>
            <path d="M10.004 20L10 19.996l.5-.996zM11.923 14.419l-1.47 1.675.91.834.006.007-.81 1.345-.43.72-.002-.003-1.383-2.167.803-.736-1.47-1.675a.305.305 0 0 1 0-.406l1.666-1.904A.352.352 0 0 1 10 12c.098 0 .191.04.257.11l1.666 1.903a.305.305 0 0 1 0 .406z"/>
            <path d="M15.374 12h-.161L10.2 20.809a.615.615 0 0 1-.396.299.535.535 0 0 1-.158.022.642.642 0 0 1-.551-.302L3.699 12h-.073C1.636 11.99.015 13.583 0 15.56v11.504A1.955 1.955 0 0 0 1.966 29h15.068A1.955 1.955 0 0 0 19 27.064V15.56c-.015-1.978-1.637-3.57-3.626-3.561zm.46 6.926h-1.9a.631.631 0 0 1-.634-.63c0-.347.284-.63.633-.63h1.9c.35 0 .634.283.634.63 0 .348-.284.63-.634.63z"/>
            <path d="M11 17.005L10 18l.992-1z"/>
        </g>
        <g transform="translate(86 61)">
            <circle cx="9.5" cy="5.5" r="5.5"/>
            <path d="M10.004 20L10 19.996l.5-.996zM11.923 14.419l-1.47 1.675.91.834.006.007-.81 1.345-.43.72-.002-.003-1.383-2.167.803-.736-1.47-1.675a.305.305 0 0 1 0-.406l1.666-1.904A.352.352 0 0 1 10 12c.098 0 .191.04.257.11l1.666 1.903a.305.305 0 0 1 0 .406z"/>
            <path d="M15.374 12h-.161L10.2 20.809a.615.615 0 0 1-.396.299.535.535 0 0 1-.158.022.642.642 0 0 1-.551-.302L3.699 12h-.073C1.636 11.99.015 13.583 0 15.56v11.504A1.955 1.955 0 0 0 1.966 29h15.068A1.955 1.955 0 0 0 19 27.064V15.56c-.015-1.978-1.637-3.57-3.626-3.561zm.46 6.926h-1.9a.631.631 0 0 1-.634-.63c0-.347.284-.63.633-.63h1.9c.35 0 .634.283.634.63 0 .348-.284.63-.634.63z"/>
            <path d="M11 17.005L10 18l.992-1z"/>
        </g>
        <g transform="translate(21 61)">
            <circle cx="9.5" cy="5.5" r="5.5"/>
            <path d="M10.004 20L10 19.996l.5-.996zM11.923 14.419l-1.47 1.675.91.834.006.007-.81 1.345-.43.72-.002-.003-1.383-2.167.803-.736-1.47-1.675a.305.305 0 0 1 0-.406l1.666-1.904A.352.352 0 0 1 10 12c.098 0 .191.04.257.11l1.666 1.903a.305.305 0 0 1 0 .406z"/>
            <path d="M15.374 12h-.161L10.2 20.809a.615.615 0 0 1-.396.299.535.535 0 0 1-.158.022.642.642 0 0 1-.551-.302L3.699 12h-.073C1.636 11.99.015 13.583 0 15.56v11.504A1.955 1.955 0 0 0 1.966 29h15.068A1.955 1.955 0 0 0 19 27.064V15.56c-.015-1.978-1.637-3.57-3.626-3.561zm.46 6.926h-1.9a.631.631 0 0 1-.634-.63c0-.347.284-.63.633-.63h1.9c.35 0 .634.283.634.63 0 .348-.284.63-.634.63z"/>
            <path d="M11 17.005L10 18l.992-1z"/>
        </g>
        <g transform="translate(0 61)">
            <circle cx="9.5" cy="5.5" r="5.5"/>
            <path d="M10.004 20L10 19.996l.5-.996zM11.923 14.419l-1.47 1.675.91.834.006.007-.81 1.345-.43.72-.002-.003-1.383-2.167.803-.736-1.47-1.675a.305.305 0 0 1 0-.406l1.666-1.904A.352.352 0 0 1 10 12c.098 0 .191.04.257.11l1.666 1.903a.305.305 0 0 1 0 .406z"/>
            <path d="M15.374 12h-.161L10.2 20.809a.615.615 0 0 1-.396.299.535.535 0 0 1-.158.022.642.642 0 0 1-.551-.302L3.699 12h-.073C1.636 11.99.015 13.583 0 15.56v11.504A1.955 1.955 0 0 0 1.966 29h15.068A1.955 1.955 0 0 0 19 27.064V15.56c-.015-1.978-1.637-3.57-3.626-3.561zm.46 6.926h-1.9a.631.631 0 0 1-.634-.63c0-.347.284-.63.633-.63h1.9c.35 0 .634.283.634.63 0 .348-.284.63-.634.63z"/>
            <path d="M11 17.005L10 18l.992-1z"/>
        </g>
        <g transform="translate(64)">
            <circle cx="9.5" cy="5.5" r="5.5"/>
            <path d="M10.004 20L10 19.996l.5-.996zM11.923 14.419l-1.47 1.675.91.834.006.007-.81 1.345-.43.72-.002-.003-1.383-2.167.803-.736-1.47-1.675a.305.305 0 0 1 0-.406l1.666-1.904A.352.352 0 0 1 10 12c.098 0 .191.04.257.11l1.666 1.903a.305.305 0 0 1 0 .406z"/>
            <path d="M15.374 12h-.161L10.2 20.809a.615.615 0 0 1-.396.299.535.535 0 0 1-.158.022.642.642 0 0 1-.551-.302L3.699 12h-.073C1.636 11.99.015 13.583 0 15.56v11.504A1.955 1.955 0 0 0 1.966 29h15.068A1.955 1.955 0 0 0 19 27.064V15.56c-.015-1.978-1.637-3.57-3.626-3.561zm.46 6.926h-1.9a.631.631 0 0 1-.634-.63c0-.347.284-.63.633-.63h1.9c.35 0 .634.283.634.63 0 .348-.284.63-.634.63z"/>
            <path d="M11 17.005L10 18l.992-1z"/>
        </g>
        <g transform="translate(64 31)">
            <circle cx="9.5" cy="5.5" r="5.5"/>
            <path d="M10.004 20L10 19.996l.5-.996zM11.923 14.419l-1.47 1.675.91.834.006.007-.81 1.345-.43.72-.002-.003-1.383-2.167.803-.736-1.47-1.675a.305.305 0 0 1 0-.406l1.666-1.904A.352.352 0 0 1 10 12c.098 0 .191.04.257.11l1.666 1.903a.305.305 0 0 1 0 .406z"/>
            <path d="M15.374 12h-.161L10.2 20.809a.615.615 0 0 1-.396.299.535.535 0 0 1-.158.022.642.642 0 0 1-.551-.302L3.699 12h-.073C1.636 11.99.015 13.583 0 15.56v11.504A1.955 1.955 0 0 0 1.966 29h15.068A1.955 1.955 0 0 0 19 27.064V15.56c-.015-1.978-1.637-3.57-3.626-3.561zm.46 6.926h-1.9a.631.631 0 0 1-.634-.63c0-.347.284-.63.633-.63h1.9c.35 0 .634.283.634.63 0 .348-.284.63-.634.63z"/>
            <path d="M11 17.005L10 18l.992-1z"/>
        </g>
        <g transform="translate(107 31)">
            <circle cx="9.5" cy="5.5" r="5.5"/>
            <path d="M10.004 20L10 19.996l.5-.996zM11.923 14.419l-1.47 1.675.91.834.006.007-.81 1.345-.43.72-.002-.003-1.383-2.167.803-.736-1.47-1.675a.305.305 0 0 1 0-.406l1.666-1.904A.352.352 0 0 1 10 12c.098 0 .191.04.257.11l1.666 1.903a.305.305 0 0 1 0 .406z"/>
            <path d="M15.374 12h-.161L10.2 20.809a.615.615 0 0 1-.396.299.535.535 0 0 1-.158.022.642.642 0 0 1-.551-.302L3.699 12h-.073C1.636 11.99.015 13.583 0 15.56v11.504A1.955 1.955 0 0 0 1.966 29h15.068A1.955 1.955 0 0 0 19 27.064V15.56c-.015-1.978-1.637-3.57-3.626-3.561zm.46 6.926h-1.9a.631.631 0 0 1-.634-.63c0-.347.284-.63.633-.63h1.9c.35 0 .634.283.634.63 0 .348-.284.63-.634.63z"/>
            <path d="M11 17.005L10 18l.992-1z"/>
        </g>
        <g transform="translate(42 31)">
            <circle cx="9.5" cy="5.5" r="5.5"/>
            <path d="M10.004 20L10 19.996l.5-.996zM11.923 14.419l-1.47 1.675.91.834.006.007-.81 1.345-.43.72-.002-.003-1.383-2.167.803-.736-1.47-1.675a.305.305 0 0 1 0-.406l1.666-1.904A.352.352 0 0 1 10 12c.098 0 .191.04.257.11l1.666 1.903a.305.305 0 0 1 0 .406z"/>
            <path d="M15.374 12h-.161L10.2 20.809a.615.615 0 0 1-.396.299.535.535 0 0 1-.158.022.642.642 0 0 1-.551-.302L3.699 12h-.073C1.636 11.99.015 13.583 0 15.56v11.504A1.955 1.955 0 0 0 1.966 29h15.068A1.955 1.955 0 0 0 19 27.064V15.56c-.015-1.978-1.637-3.57-3.626-3.561zm.46 6.926h-1.9a.631.631 0 0 1-.634-.63c0-.347.284-.63.633-.63h1.9c.35 0 .634.283.634.63 0 .348-.284.63-.634.63z"/>
            <path d="M11 17.005L10 18l.992-1z"/>
        </g>
        <g transform="translate(85 31)">
            <circle cx="9.5" cy="5.5" r="5.5"/>
            <path d="M10.004 20L10 19.996l.5-.996zM11.923 14.419l-1.47 1.675.91.834.006.007-.81 1.345-.43.72-.002-.003-1.383-2.167.803-.736-1.47-1.675a.305.305 0 0 1 0-.406l1.666-1.904A.352.352 0 0 1 10 12c.098 0 .191.04.257.11l1.666 1.903a.305.305 0 0 1 0 .406z"/>
            <path d="M15.374 12h-.161L10.2 20.809a.615.615 0 0 1-.396.299.535.535 0 0 1-.158.022.642.642 0 0 1-.551-.302L3.699 12h-.073C1.636 11.99.015 13.583 0 15.56v11.504A1.955 1.955 0 0 0 1.966 29h15.068A1.955 1.955 0 0 0 19 27.064V15.56c-.015-1.978-1.637-3.57-3.626-3.561zm.46 6.926h-1.9a.631.631 0 0 1-.634-.63c0-.347.284-.63.633-.63h1.9c.35 0 .634.283.634.63 0 .348-.284.63-.634.63z"/>
            <path d="M11 17.005L10 18l.992-1z"/>
        </g>
        <g transform="translate(21 31)">
            <circle cx="9.5" cy="5.5" r="5.5"/>
            <path d="M10.004 20L10 19.996l.5-.996zM11.923 14.419l-1.47 1.675.91.834.006.007-.81 1.345-.43.72-.002-.003-1.383-2.167.803-.736-1.47-1.675a.305.305 0 0 1 0-.406l1.666-1.904A.352.352 0 0 1 10 12c.098 0 .191.04.257.11l1.666 1.903a.305.305 0 0 1 0 .406z"/>
            <path d="M15.374 12h-.161L10.2 20.809a.615.615 0 0 1-.396.299.535.535 0 0 1-.158.022.642.642 0 0 1-.551-.302L3.699 12h-.073C1.636 11.99.015 13.583 0 15.56v11.504A1.955 1.955 0 0 0 1.966 29h15.068A1.955 1.955 0 0 0 19 27.064V15.56c-.015-1.978-1.637-3.57-3.626-3.561zm.46 6.926h-1.9a.631.631 0 0 1-.634-.63c0-.347.284-.63.633-.63h1.9c.35 0 .634.283.634.63 0 .348-.284.63-.634.63z"/>
            <path d="M11 17.005L10 18l.992-1z"/>
        </g>
    </g>
</svg>
