<svg id="Layer_1" data-name="Layer 1" xmlns="http://www.w3.org/2000/svg" width="141.5694" height="86.0895" viewBox="0 0 141.5694 86.0895"><defs><style>.cls-1{fill:#f3bd51;}</style></defs><title>First Test</title><circle class="cls-1" cx="70.3501" cy="61.7317" r="4.7804"/><path class="cls-1" d="M70.7882,74.3345l-.0035-.0034.4346-.8657Zm1.6679-4.8507L71.1784,70.94l.791.7249.0052.0061-.704,1.169-.3738.6258-.0017-.0026L69.693,71.5793l.698-.64-1.2777-1.4558a.265.265,0,0,1,0-.3529l1.448-1.6549a.31.31,0,0,1,.4468.0009l1.448,1.654A.2653.2653,0,0,1,72.4561,69.4838Z"/><path class="cls-1" d="M75.4556,67.3813h-.14l-4.3571,7.6564a.5346.5346,0,0,1-.3442.26.4652.4652,0,0,1-.1373.0191.558.558,0,0,1-.4789-.2625l-4.69-7.6729h-.0634a3.1268,3.1268,0,0,0-3.1516,3.0942v9.9988a1.6993,1.6993,0,0,0,1.7088,1.6827H76.8984a1.6992,1.6992,0,0,0,1.7087-1.6827V70.4755A3.1282,3.1282,0,0,0,75.4556,67.38Zm.4,6.02H74.204a.5486.5486,0,0,1-.5511-.5459v-.0017a.55.55,0,0,1,.55-.5476h1.6514a.5476.5476,0,1,1,0,1.0952Z"/><path class="cls-1" d="M71.6539,71.7314l-.8692.8648.8622-.8691Z"/><circle class="cls-1" cx="126.8456" cy="61.7317" r="4.7804"/><path class="cls-1" d="M127.2836,74.3345l-.0034-.0034.4345-.8657Zm1.668-4.8507L127.6739,70.94l.7909.7249.0052.0061-.704,1.169-.3737.6258-.0018-.0026-1.202-1.8835.6979-.64-1.2776-1.4558a.265.265,0,0,1,0-.3529l1.448-1.6549a.31.31,0,0,1,.4467.0009l1.4481,1.654A.2653.2653,0,0,1,128.9516,69.4838Z"/><path class="cls-1" d="M131.951,67.3813h-.14l-4.3571,7.6564a.5351.5351,0,0,1-.3442.26.4662.4662,0,0,1-.1373.0191.558.558,0,0,1-.4789-.2625l-4.69-7.6729H121.74a3.1269,3.1269,0,0,0-3.1516,3.0942v9.9988a1.6993,1.6993,0,0,0,1.7088,1.6827h13.0965a1.6993,1.6993,0,0,0,1.7088-1.6827V70.4755A3.1282,3.1282,0,0,0,131.951,67.38Zm.4,6.02h-1.6514a.5485.5485,0,0,1-.551-.5459v-.0017a.55.55,0,0,1,.55-.5476H132.35a.5476.5476,0,1,1,0,1.0952Z"/><path class="cls-1" d="M128.1493,71.7314l-.8691.8648.8622-.8691Z"/><circle class="cls-1" cx="107.724" cy="61.7317" r="4.7804"/><path class="cls-1" d="M108.1621,74.3345l-.0035-.0034.4346-.8657Zm1.6679-4.8507L108.5523,70.94l.791.7249.0052.0061-.704,1.169-.3738.6258-.0017-.0026-1.2021-1.8835.698-.64-1.2777-1.4558a.2653.2653,0,0,1,0-.3529l1.448-1.6549a.31.31,0,0,1,.4468.0009l1.448,1.654A.265.265,0,0,1,109.83,69.4838Z"/><path class="cls-1" d="M112.83,67.3813h-.14l-4.3572,7.6564a.5346.5346,0,0,1-.3441.26.4664.4664,0,0,1-.1374.0191.5581.5581,0,0,1-.4789-.2625l-4.69-7.6729h-.0634a3.1268,3.1268,0,0,0-3.1516,3.0942v9.9988a1.6993,1.6993,0,0,0,1.7088,1.6827h13.0965a1.6993,1.6993,0,0,0,1.7088-1.6827V70.4755A3.1283,3.1283,0,0,0,112.83,67.38Zm.4,6.02h-1.6514a.5485.5485,0,0,1-.551-.5459v-.0017a.55.55,0,0,1,.55-.5476h1.6514a.5476.5476,0,1,1,0,1.0952Z"/><path class="cls-1" d="M109.0278,71.7314l-.8692.8648.8622-.8691Z"/><circle class="cls-1" cx="52.0977" cy="61.7317" r="4.7804"/><path class="cls-1" d="M52.5358,74.3345l-.0035-.0034.4346-.8657Zm1.6679-4.8507L52.926,70.94l.791.7249.0052.0061-.704,1.169-.3738.6258-.0017-.0026-1.2021-1.8835.698-.64-1.2777-1.4558a.2653.2653,0,0,1,0-.3529l1.448-1.6549a.31.31,0,0,1,.4468.0009l1.448,1.654A.265.265,0,0,1,54.2037,69.4838Z"/><path class="cls-1" d="M57.2032,67.3813h-.14l-4.3571,7.6564a.5346.5346,0,0,1-.3441.26.4664.4664,0,0,1-.1374.0191.5581.5581,0,0,1-.4789-.2625l-4.69-7.6729h-.0634a3.1268,3.1268,0,0,0-3.1516,3.0942v9.9988A1.6993,1.6993,0,0,0,45.55,82.157H58.646a1.6993,1.6993,0,0,0,1.7088-1.6827V70.4755A3.1283,3.1283,0,0,0,57.2032,67.38Zm.4,6.02H55.9516a.5486.5486,0,0,1-.5511-.5459v-.0017a.55.55,0,0,1,.55-.5476h1.6514a.5476.5476,0,1,1,0,1.0952Z"/><path class="cls-1" d="M53.4015,71.7314l-.8692.8648.8622-.8691Z"/><circle class="cls-1" cx="51.2286" cy="8.7129" r="4.7804"/><path class="cls-1" d="M51.6666,21.3157l-.0035-.0035.4346-.8656Zm1.6679-4.8508-1.2776,1.4559.7909.7249.0052.006-.704,1.1691-.3737.6258-.0018-.0026-1.202-1.8835.6979-.64-1.2776-1.4559a.2649.2649,0,0,1,0-.3528l1.448-1.6549a.31.31,0,0,1,.4467.0008l1.448,1.6541A.2649.2649,0,0,1,53.3345,16.4649Z"/><path class="cls-1" d="M56.334,14.3624h-.14L51.837,22.0189a.5351.5351,0,0,1-.3442.26.4662.4662,0,0,1-.1373.0191.5579.5579,0,0,1-.4789-.2625l-4.69-7.673h-.0635a3.127,3.127,0,0,0-3.1516,3.0942v9.9989A1.6993,1.6993,0,0,0,44.68,29.1382H57.7768a1.6993,1.6993,0,0,0,1.7088-1.6827V17.4566a3.128,3.128,0,0,0-3.1516-3.095Zm.4,6.02H55.0824a.5483.5483,0,0,1-.551-.5458v-.0017a.55.55,0,0,1,.55-.5476H56.733a.5476.5476,0,1,1,0,1.0951Z"/><path class="cls-1" d="M52.5323,18.7126l-.8692.8648.8623-.8692Z"/><circle class="cls-1" cx="89.4717" cy="8.7129" r="4.7804"/><path class="cls-1" d="M89.91,21.3157l-.0035-.0035.4346-.8656Zm1.6679-4.8508L90.3,17.9208l.7909.7249.0052.006-.704,1.1691-.3737.6258-.0018-.0026-1.202-1.8835.6979-.64-1.2777-1.4559a.2651.2651,0,0,1,0-.3528l1.4481-1.6549a.31.31,0,0,1,.4467.0008l1.448,1.6541A.2649.2649,0,0,1,91.5776,16.4649Z"/><path class="cls-1" d="M94.5771,14.3624h-.14L90.08,22.0189a.5351.5351,0,0,1-.3442.26.4662.4662,0,0,1-.1373.0191.5582.5582,0,0,1-.479-.2625l-4.69-7.673h-.0635a3.127,3.127,0,0,0-3.1516,3.0942v9.9989a1.6993,1.6993,0,0,0,1.7088,1.6827H96.02a1.6993,1.6993,0,0,0,1.7088-1.6827V17.4566a3.1281,3.1281,0,0,0-3.1516-3.095Zm.4,6.02H93.3255a.5483.5483,0,0,1-.551-.5458v-.0017a.55.55,0,0,1,.55-.5476h1.6515a.5476.5476,0,1,1,0,1.0951Z"/><path class="cls-1" d="M90.7754,18.7126l-.8692.8648.8622-.8692Z"/><circle class="cls-1" cx="89.4717" cy="61.7317" r="4.7804"/><path class="cls-1" d="M89.91,74.3345l-.0035-.0034.4346-.8657Zm1.6679-4.8507L90.3,70.94l.7909.7249.0052.0061-.704,1.169-.3737.6258-.0018-.0026-1.202-1.8835.6979-.64-1.2777-1.4558a.2653.2653,0,0,1,0-.3529l1.4481-1.6549a.31.31,0,0,1,.4467.0009l1.448,1.654A.265.265,0,0,1,91.5776,69.4838Z"/><path class="cls-1" d="M94.5771,67.3813h-.14L90.08,75.0377a.5351.5351,0,0,1-.3442.26.4662.4662,0,0,1-.1373.0191.5582.5582,0,0,1-.479-.2625l-4.69-7.6729h-.0635a3.1269,3.1269,0,0,0-3.1516,3.0942v9.9988a1.6993,1.6993,0,0,0,1.7088,1.6827H96.02a1.6993,1.6993,0,0,0,1.7088-1.6827V70.4755A3.1282,3.1282,0,0,0,94.5771,67.38Zm.4,6.02H93.3255a.5485.5485,0,0,1-.551-.5459v-.0017a.55.55,0,0,1,.55-.5476h1.6515a.5476.5476,0,1,1,0,1.0952Z"/><path class="cls-1" d="M90.7754,71.7314l-.8692.8648.8622-.8691Z"/><circle class="cls-1" cx="32.9762" cy="61.7317" r="4.7804"/><path class="cls-1" d="M33.4142,74.3345l-.0034-.0034.4345-.8657Zm1.668-4.8507L33.8045,70.94l.7909.7249.0052.0061-.704,1.169-.3737.6258-.0017-.0026-1.2021-1.8835.6979-.64-1.2776-1.4558a.265.265,0,0,1,0-.3529l1.448-1.6549a.31.31,0,0,1,.4467.0009l1.4481,1.654A.2653.2653,0,0,1,35.0822,69.4838Z"/><path class="cls-1" d="M38.0816,67.3813h-.14l-4.3571,7.6564a.5348.5348,0,0,1-.3442.26.4652.4652,0,0,1-.1373.0191.558.558,0,0,1-.4789-.2625l-4.69-7.6729h-.0635a3.1268,3.1268,0,0,0-3.1515,3.0942v9.9988a1.6992,1.6992,0,0,0,1.7087,1.6827H39.5244a1.6993,1.6993,0,0,0,1.7088-1.6827V70.4755A3.1282,3.1282,0,0,0,38.0816,67.38Zm.4,6.02H36.83a.5485.5485,0,0,1-.551-.5459v-.0017a.55.55,0,0,1,.55-.5476h1.6514a.5476.5476,0,1,1,0,1.0952Z"/><path class="cls-1" d="M34.28,71.7314l-.8691.8648.8622-.8691Z"/><circle class="cls-1" cx="14.7238" cy="61.7317" r="4.7804"/><path class="cls-1" d="M15.1619,74.3345l-.0035-.0034.4346-.8657ZM16.83,69.4838,15.5521,70.94l.791.7249.0052.0061-.7041,1.169-.3737.6258-.0017-.0026-1.2021-1.8835.698-.64L13.487,69.4838a.265.265,0,0,1,0-.3529l1.448-1.6549a.31.31,0,0,1,.4468.0009l1.448,1.654A.2653.2653,0,0,1,16.83,69.4838Z"/><path class="cls-1" d="M19.8293,67.3813h-.14l-4.3571,7.6564a.5346.5346,0,0,1-.3442.26.4652.4652,0,0,1-.1373.0191.558.558,0,0,1-.4789-.2625l-4.69-7.6729H9.6184a3.1268,3.1268,0,0,0-3.1516,3.0942v9.9988A1.6992,1.6992,0,0,0,8.1755,82.157H21.2721a1.6992,1.6992,0,0,0,1.7087-1.6827V70.4755A3.1282,3.1282,0,0,0,19.8293,67.38Zm.4,6.02H18.5777a.5486.5486,0,0,1-.5511-.5459v-.0017a.55.55,0,0,1,.55-.5476h1.6514a.5476.5476,0,1,1,0,1.0952Z"/><path class="cls-1" d="M16.0275,71.7314l-.8691.8648.8622-.8691Z"/><circle class="cls-1" cx="70.3501" cy="8.7129" r="4.7804"/><path class="cls-1" d="M70.7882,21.3157l-.0035-.0035.4346-.8656Zm1.6679-4.8508-1.2777,1.4559.791.7249.0052.006-.704,1.1691-.3738.6258-.0017-.0026L69.693,18.5605l.698-.64-1.2777-1.4559a.2649.2649,0,0,1,0-.3528l1.448-1.6549a.31.31,0,0,1,.4468.0008l1.448,1.6541A.2651.2651,0,0,1,72.4561,16.4649Z"/><path class="cls-1" d="M75.4556,14.3624h-.14l-4.3571,7.6565a.5346.5346,0,0,1-.3442.26.4652.4652,0,0,1-.1373.0191.558.558,0,0,1-.4789-.2625l-4.69-7.673h-.0634a3.1268,3.1268,0,0,0-3.1516,3.0942v9.9989a1.6993,1.6993,0,0,0,1.7088,1.6827H76.8984a1.6992,1.6992,0,0,0,1.7087-1.6827V17.4566a3.128,3.128,0,0,0-3.1515-3.095Zm.4,6.02H74.204a.5485.5485,0,0,1-.5511-.5458v-.0017a.55.55,0,0,1,.55-.5476h1.6514a.5476.5476,0,1,1,0,1.0951Z"/><path class="cls-1" d="M71.6539,18.7126l-.8692.8648.8622-.8692Z"/><circle class="cls-1" cx="70.3501" cy="35.6569" r="4.7804"/><path class="cls-1" d="M70.7882,48.26l-.0035-.0035.4346-.8656Zm1.6679-4.8508-1.2777,1.4559.791.7248.0052.0061-.704,1.1691-.3738.6257-.0017-.0026L69.693,45.5045l.698-.64-1.2777-1.4559a.265.265,0,0,1,0-.3529l1.448-1.6548a.31.31,0,0,1,.4468.0008l1.448,1.654A.2653.2653,0,0,1,72.4561,43.4089Z"/><path class="cls-1" d="M75.4556,41.3064h-.14l-4.3571,7.6565a.5341.5341,0,0,1-.3442.26.4653.4653,0,0,1-.1373.0192.558.558,0,0,1-.4789-.2625l-4.69-7.673h-.0634a3.1268,3.1268,0,0,0-3.1516,3.0942V54.4a1.6993,1.6993,0,0,0,1.7088,1.6827H76.8984A1.6992,1.6992,0,0,0,78.6071,54.4V44.4006a3.128,3.128,0,0,0-3.1515-3.095Zm.4,6.02H74.204a.5485.5485,0,0,1-.5511-.5458v-.0017a.55.55,0,0,1,.55-.5476h1.6514a.5476.5476,0,1,1,0,1.0951Z"/><path class="cls-1" d="M71.6539,45.6566l-.8692.8648.8622-.8692Z"/><circle class="cls-1" cx="107.724" cy="35.6569" r="4.7804"/><path class="cls-1" d="M108.1621,48.26l-.0035-.0035.4346-.8656Zm1.6679-4.8508-1.2777,1.4559.791.7248.0052.0061-.704,1.1691-.3738.6257-.0017-.0026-1.2021-1.8834.698-.64-1.2777-1.4559a.2653.2653,0,0,1,0-.3529l1.448-1.6548a.31.31,0,0,1,.4468.0008l1.448,1.654A.265.265,0,0,1,109.83,43.4089Z"/><path class="cls-1" d="M112.83,41.3064h-.14l-4.3572,7.6565a.5342.5342,0,0,1-.3441.26.4665.4665,0,0,1-.1374.0192.5581.5581,0,0,1-.4789-.2625l-4.69-7.673h-.0634a3.1269,3.1269,0,0,0-3.1516,3.0942V54.4a1.6993,1.6993,0,0,0,1.7088,1.6827h13.0965A1.6993,1.6993,0,0,0,115.9811,54.4V44.4006a3.1282,3.1282,0,0,0-3.1516-3.095Zm.4,6.02h-1.6514a.5483.5483,0,0,1-.551-.5458v-.0017a.55.55,0,0,1,.55-.5476h1.6514a.5476.5476,0,1,1,0,1.0951Z"/><path class="cls-1" d="M109.0278,45.6566l-.8692.8648.8622-.8692Z"/><circle class="cls-1" cx="51.2286" cy="35.6569" r="4.7804"/><path class="cls-1" d="M51.6666,48.26l-.0035-.0035.4346-.8656Zm1.6679-4.8508-1.2776,1.4559.7909.7248.0052.0061-.704,1.1691-.3737.6257-.0018-.0026-1.202-1.8834.6979-.64-1.2776-1.4559a.265.265,0,0,1,0-.3529l1.448-1.6548a.31.31,0,0,1,.4467.0008l1.448,1.654A.265.265,0,0,1,53.3345,43.4089Z"/><path class="cls-1" d="M56.334,41.3064h-.14L51.837,48.9629a.5346.5346,0,0,1-.3442.26.4663.4663,0,0,1-.1373.0192.5579.5579,0,0,1-.4789-.2625l-4.69-7.673h-.0635a3.127,3.127,0,0,0-3.1516,3.0942V54.4A1.6993,1.6993,0,0,0,44.68,56.0822H57.7768A1.6993,1.6993,0,0,0,59.4856,54.4V44.4006a3.128,3.128,0,0,0-3.1516-3.095Zm.4,6.02H55.0824a.5483.5483,0,0,1-.551-.5458v-.0017a.55.55,0,0,1,.55-.5476H56.733a.5476.5476,0,1,1,0,1.0951Z"/><path class="cls-1" d="M52.5323,45.6566l-.8692.8648.8623-.8692Z"/><circle class="cls-1" cx="88.6025" cy="35.6569" r="4.7804"/><path class="cls-1" d="M89.0405,48.26l-.0034-.0035.4346-.8656Zm1.668-4.8508-1.2777,1.4559.7909.7248.0053.0061-.7041,1.1691-.3737.6257-.0017-.0026-1.2021-1.8834.6979-.64-1.2776-1.4559a.265.265,0,0,1,0-.3529l1.448-1.6548a.31.31,0,0,1,.4467.0008l1.4481,1.654A.2653.2653,0,0,1,90.7085,43.4089Z"/><path class="cls-1" d="M93.7079,41.3064h-.14l-4.3571,7.6565a.5341.5341,0,0,1-.3442.26.4653.4653,0,0,1-.1373.0192.558.558,0,0,1-.4789-.2625l-4.69-7.673H83.497a3.1268,3.1268,0,0,0-3.1515,3.0942V54.4a1.6992,1.6992,0,0,0,1.7087,1.6827H95.1508A1.6992,1.6992,0,0,0,96.86,54.4V44.4006a3.128,3.128,0,0,0-3.1516-3.095Zm.4,6.02H92.4564a.5485.5485,0,0,1-.5511-.5458v-.0017a.55.55,0,0,1,.55-.5476h1.6514a.5476.5476,0,1,1,0,1.0951Z"/><path class="cls-1" d="M89.9062,45.6566l-.8691.8648.8622-.8692Z"/><circle class="cls-1" cx="32.9762" cy="35.6569" r="4.7804"/><path class="cls-1" d="M33.4142,48.26l-.0034-.0035.4345-.8656Zm1.668-4.8508-1.2777,1.4559.7909.7248.0052.0061-.704,1.1691-.3737.6257-.0017-.0026-1.2021-1.8834.6979-.64-1.2776-1.4559a.265.265,0,0,1,0-.3529l1.448-1.6548a.31.31,0,0,1,.4467.0008l1.4481,1.654A.2653.2653,0,0,1,35.0822,43.4089Z"/><path class="cls-1" d="M38.0816,41.3064h-.14l-4.3571,7.6565a.5344.5344,0,0,1-.3442.26.4653.4653,0,0,1-.1373.0192.558.558,0,0,1-.4789-.2625l-4.69-7.673h-.0635a3.1268,3.1268,0,0,0-3.1515,3.0942V54.4a1.6992,1.6992,0,0,0,1.7087,1.6827H39.5244A1.6993,1.6993,0,0,0,41.2332,54.4V44.4006a3.128,3.128,0,0,0-3.1516-3.095Zm.4,6.02H36.83a.5484.5484,0,0,1-.551-.5458v-.0017a.55.55,0,0,1,.55-.5476h1.6514a.5476.5476,0,1,1,0,1.0951Z"/><path class="cls-1" d="M34.28,45.6566l-.8691.8648.8622-.8692Z"/></svg>