<svg id="Layer_1" data-name="Layer 1" xmlns="http://www.w3.org/2000/svg" viewBox="0 0 500 500">
  <g>
    <g>
      <path d="M190.94877,300.81647V431.0784a19.35678,19.35678,0,0,0,19.3568,19.3568h0a19.3568,19.3568,0,0,0,19.35679-19.3568l-1.106-130.26193-1.87615-92.5776c3.73847,5.58315,7.62269,11.04315,11.82819,16.32754l.21535.26874a14.63582,14.63582,0,0,0,11.42064,5.48293h0a14.63875,14.63875,0,0,0,11.51074-5.59459L304.2122,170.56c4.94921-6.299,4.41166-15.60519-1.73495-20.74242a14.63877,14.63877,0,0,0-20.90743,2.17816l-30.952,39.39464c-3.11215-4.673-6.1919-9.55566-9.39935-14.68986-7.061-11.30137-18.0288-18.22319-34.49677-18.00019-.21151.00286-.42307.00189-.63269.00568l-39.27556.52792c-29.12525-.14676-40.98214,13.87987-41.32232,31.56563-.01289.6696-.24012,101.38434-.24012,101.38434a14.63514,14.63514,0,0,0,14.31345,14.95094c.10957.00194.21724.00383.32588.00383a14.6145,14.6145,0,0,0,12.234-6.63431" fill="#fff" stroke="#0054a0" stroke-linecap="round" stroke-linejoin="round" stroke-width="6.22372"/>
      <circle cx="184.38309" cy="114.45156" r="32.14795" fill="#fff" stroke="#0054a0" stroke-linecap="round" stroke-linejoin="round" stroke-width="6.22372"/>
      <line x1="152.23514" y1="211.77856" x2="152.23514" y2="300.81647" fill="#fff" stroke="#0054a0" stroke-linecap="round" stroke-linejoin="round" stroke-width="6.22372"/>
      <path d="M190.94877,300.81647V431.0784A19.3568,19.3568,0,0,1,171.592,450.4352h-.00005a19.35678,19.35678,0,0,1-19.35679-19.3568V300.81647" fill="#fff" stroke="#0054a0" stroke-linecap="round" stroke-linejoin="round" stroke-width="6.22372"/>
      <path d="M291.386,450.4352V77.91311a11.27806,11.27806,0,0,1,5.31-9.65169c4.59384-2.8092,12.48954-5.58681,24.90182-4.06777C341.50548,66.63,375.95038,86.82793,405.36025,79.753v64.97935c-33.25641,11.40231-66.90619-7.3905-83.35031-12.187-18.78346-5.4789-30.62395,6.41719-30.62395,6.41719" fill="#de9c19" stroke="#0054a0" stroke-linecap="round" stroke-linejoin="round" stroke-width="6.22372"/>
      <g>
        <rect x="94.63975" y="310.07582" width="87.87805" height="58.83525" rx="8.8975" fill="#c3cae4" stroke="#0054a0" stroke-linecap="round" stroke-linejoin="round" stroke-width="4"/>
        <path d="M182.5178,319.58478l-9.04625,16.2602-1.76669,3.35086a16.35953,16.35953,0,0,1-14.59663,8.33807H120.04932a16.372,16.372,0,0,1-14.55709-8.26312l-1.84766-3.50024-9.00482-16.18577" fill="none" stroke="#0054a0" stroke-linecap="round" stroke-linejoin="round" stroke-width="4"/>
        <path d="M131.09612,294.51565h14.71893a8.0425,8.0425,0,0,1,8.0425,8.0425v7.51941a0,0,0,0,1,0,0H123.05362a0,0,0,0,1,0,0v-7.51941A8.0425,8.0425,0,0,1,131.09612,294.51565Z" fill="#fff" stroke="#0054a0" stroke-linecap="round" stroke-linejoin="round" stroke-width="4"/>
      </g>
    </g>
    <line x1="291.38599" y1="49.5648" x2="291.38599" y2="77.91311" fill="#fff" stroke="#0054a0" stroke-linecap="round" stroke-linejoin="round" stroke-width="6.22372"/>
  </g>
</svg>
