<svg width="74" height="71" viewBox="0 0 74 71" fill="none" xmlns="http://www.w3.org/2000/svg">
<path d="M64.0612 27.8848C60.5192 27.652 57.2852 27.8072 53.0502 28.1952C51.2792 28.3504 50.5862 25.8672 50.9712 22.0648C51.5102 15.4688 52.2802 10.8128 52.8192 7.0104C53.8972 0.181601 44.2722 -0.982399 42.1932 4.2944C40.1912 9.3384 34.6472 27.1864 23.9442 32.1528C22.7122 32.696 21.9422 34.0152 21.9422 35.412C21.9422 41.232 21.9422 55.6656 21.8652 61.7184C21.8652 63.348 22.9432 64.7448 24.4832 65.2104C30.4892 66.84 45.4272 70.6424 55.9762 70.6424C62.8292 70.6424 66.8332 70.0992 68.2962 63.6584C69.8362 56.9072 71.7612 46.9744 73.2242 39.292C74.7642 31.0664 71.2222 28.3504 64.0612 27.8848Z" fill="#0054A0"/>
<path d="M16.3982 30.5232H2.15324C1.22924 30.5232 0.459229 31.2992 0.459229 32.2304V65.9864C0.459229 66.9176 1.22924 67.6936 2.15324 67.6936H16.3982C17.3222 67.6936 18.0922 66.9176 18.0922 65.9864V32.2304C18.0922 31.2992 17.3222 30.5232 16.3982 30.5232ZM9.23725 62.184C7.46625 62.184 6.08027 60.7872 6.08027 59.0024C6.08027 57.2176 7.46625 55.8209 9.23725 55.8209C11.0082 55.8209 12.3942 57.2176 12.3942 59.0024C12.3942 60.7872 11.0082 62.184 9.23725 62.184Z" fill="#0054A0"/>
</svg>
