<svg id="Layer_1" data-name="Layer 1" xmlns="http://www.w3.org/2000/svg" width="139.3433" height="88.0679" viewBox="0 0 139.3433 88.0679"><defs><style>.cls-1{fill:#f3bd51;fill-rule:evenodd;}</style></defs><title>Test 3</title><path class="cls-1" d="M126.248,25.5857l-.252.1043-.346.1573-.2016-.1651-.0765.0686-.0156-.106-.2026.1591V25.411l.0122-.0087-.3016.13-.4989.2486-.1391-.0209-.1347.2086-.345.2668-.4894.1912-.0017-.0121-.96.4763-.678.1434-.4015.2234-.0861-.0644-.1912.2113-.4867.4328-.7093.4824.0635.113-.2677.2529.0043.02.0522-.0113.1808-.1565.3233-.3572.186-.1017.2434.09.2642.0235,1.0126-.5.3711-.345.2147-.2478.7631.29-.5676.598L121.1,29.091l-.346.133-.7761.2538-.5693.1564-.146-.0582.0034.0339-.3276.2955.1868-.0208.2225-.1617.273.5806.026,1.2446.0861.1565-.1617.7892-.4189.8761-.3477.5128-.1069.6449-.3285.3738h-.2408l-.0539-.4885.1052-.1312-.01-.0835-.4868-.0765L117.02,33.8l-.4389-.398-.1034-.2052-.0148.0626.2416.4146.3086.1339.2694.5093.2321.6049.4041.27.186-.093.3564,1.13.0426-.007-.0887.7988-.2216.4954-.0374.5232-.3867.505-.05.5711.0687.4641-.2573.7127-.4259.3668-.252-.7718.0608-.7649.21-.55.0887-.4172-.0122-.212-.0869.0347-.1956-.0782-.3919-.5145-.0192.0086.1043.3408a2.8543,2.8543,0,0,1,.0965.4406c0,.0244,0,.0817-.1486.23l-.0921.0912-.2217-.3824-.0269-.2451-.1895-.43.04-.0086-.299-.0383-.3946-.5145.0469-.532.1652-.1338-.0522-.0582-.0956.1625-.2225.09-.0574-.6805.2782-.133-.0522-.585-.2268-.0373-.0652-.2373.1825-.5172-.1929.1321a1.1166,1.1166,0,0,0-.0513.2156.5882.5882,0,0,1-.1617.3016l.1313.1321.0321.33-.1695.691.259.6779.3347.2921v.252l.2155.3007-.19.3981-.226-.0321.266.2538.4345.0538.1678.2243-.0522.6084.1956.153-.0643.2468.1521.1017-.0478.3364-.339-.0122.0035.0522.3051.2.0147.1981.2347.2338.0869.4346-.2894.1547.07.0652.791-.2312.5667.9474.006-.0017.0174.0417.0131.0208-.0035.0009.2712.65.4676.8405.3276.3286.0357.1356.1538-.0435.4059.84.0539.5919-.03.52-.4954.2173-.3607.3094-.1747.1912-.392-.07.4867-.4676.4572-.3651.1434-.0582.0191-.1956-.0765-.7753-.1973-.3094-.02-.0626-.1312.0131-.0435.6136-.3581.1791-.0721.2494-.19.4207-.5519.239-.3407-.0435.1017.1661-.2269.7509h.4937l.05.1321.2112-.21.4406-.1695-.3763.7127-.4468.691h-.2486l-.1355-.0617-.3164.07-.67.3094-.8449.6875-.4345.6-.2478.8465-.0791.3825-.6883.073-.6658.1955-.7457.7588-.3321.7779-.07.8761-.23.1147-.1512.3712-.3277.0817-.2738.4615-.352.352-.3155.465-.2225.1113-.4945.4658-.2955.0209.1129.36-.72.76-.3251.2233-.0226.0087.08.24-.4433.83.0652.3372-.2086.5841L107.52,60.61l.1191.9387-.0044-.0009.3042.9657.4876,1.2759.7014,1.242.4868.8266.6319.724.544.5085.246.445-.1825.2155-.0678.1365.3616.9213.39.3972.3451.704.4745.7614.6119,1.1247.173,1.01.0669,1.5914.0817.246-.046.5249-.3043.1652.0331.206-.0809.2538.03.2338.1043-.2929.2886-.206-.04.684-.1408.239-.3373.8866-.5162.5423-1.1308.8892-.3181-.2912.43-.2694.445-.2486.5667-.5389.3685-.6093-.0417.0478-.4493.2173-.4989.0261-.186.1981-.3764.1565-.2277-.0869-.1877-.1712-.0435-.4225-.1008-.4224-.4311-.6579-.44-.2808-.4329-.033-.1538.25-.5128-.7267-.08-.48-.3216-.4955-.1434-.0869-.1947.2556-.3528-.0591-.2956-.7041-.3867-.5189-.3807-.6953-.339-.4041-.5389-.552.3338-.3807.4041-.6927-.0139-.1095-.5006-.1112-.0243.0087.3146.1216-.2408.7214-.2346.1452-.2912-.65-.1756-.6519-.0417-.38.2-.6293V67.3472l-.3911-.4885-.153-.3651-.6432-.1616-.2937-.0922-.2173-.352-.4641-.2173-.1443-.4467-.3451-.1278-.319-.491-.5388-.193-.3642-.1877h-.3112l-.45.09-.0148.139.1191.1478-.1208.2651-.4363-.0287-.4833.4641-.5006.2643h-.5241l-.53.2147-.05-.46-.1765-.2086-.38-.1443-.2164-.2025-1.0534-.5067-.9822-.2321-.5667.0773-.7909.0661-.8014.2781-.5519.1008-.0017-.0521-.71.3407L91.2,64.7649l.5319-.3738v-.0565l-.38-.7361-.1738-.0452-.1695.4971-.2156.4485-.1477-.05h-.4016l-.0626.252h-.7944l-.206-.11-.2416-.0348-.9187.2573-.1921-.086-.31.5006-.2711.1973-.0026-.007-.253.226-.1834.1938.0748.1348.272.0521.0643-.2764.2947-.3251L87.85,65.38l.0486.4346.1947.2833-.3.5163h-.2182l.0956.0522-.08.2364-.31-.0409-.0878.2147.3415.2451.7736.1069.4467.3538h.2373v.332l-.3911.5267-.199-.1808h-.4l-.1478-.2207-.4937-.2347-.6136-.0869-.0852-.4407-.0817.0956-.2234.0539.0192.1391-.0583.1173.412.0582-.32.2-.3112.4606-.5424.2069-.2381-.2382.3676-.1278-.0721-.2633-.0834-.0635-.1965.1634-.3189.0731-.13.3129-.5563.2-1.1707-.5007-.3164-.3155.2564-.1564.0608-.1234-.1616-.1617-.6432-.0435-.0469-.365-.1652-.2634-.3468-.0643-.2677.1478-.2494-.2078-.3216.1043-.0435.0791.2451.1452.3346-.0643.5485.1877-.1765.4633-.5154-.1608-.3928-.1356-.4833.1964-.9091-.1547L78.2121,67l-1.0447.0382-.658.2086v.0052l-.8144.2321-1.2794.5806-.1278.2433-.6449.465-.1695.1043-.7509.698-.3651.2842-.7283.4381-.7579.3189-.82.4433-.2434.2-.6927.43.0174.0052-.7188.9865-.5754.8483-.2581.85-.0383.6693.1165.79.3477.9709.0669.69.0374.2781-.1826.0609.0061.0608-.0417-.0495-.0305.01.0061.0087-.1825.2729-.4867.2973-.7936-.5432-.6831-.1365-.173.0661-.4754-.0887-.56-.4128-.69-.1478-1.0421-.465-.3051-.5754-.1642-.82-.4225-.25-.1042-.4.0938-.0948.03-.3459-.1364-.0626-.1182-.1973.1712-.58-.1686-.2425-.4224-.1712-.4781-.6188-.4658-.8536-.5893-.365.03-.2877-.7006-1.63-.1008-.5294-.2416-.2538-.0261-.1947-.7805-.69-.3694-.4389v-.1347l-.2877-.2329L56.3475,66.6l-1.0056-.0809-.39-.2894-.5467.2182-.452.1877-.2781.3877-.1434.5058-.5954.8222-.365.3651-.4224-.1643-.23-.1391-.2616-.086-.5676-.3346v-.0956l-.1973-.2086-.6918-.2782L49.1847,66.332l-.3164-.6441V64.611l-.4232-.8683-.0591-.3155-.1982-.1234-.1426-.2712-.6544-.2746-.1886-.2321-.96-1.0743-.1582-.3894-.6284-.3068-.206-.6049-.3129-.3485-.1912-.0565v.0034l-1.747-.2146-2.1234-.33-.159,1.2724-2.3016-.2911.0018-.01-3.41-.3624L33.33,59.4812l-2.2338-1.328-1.9547-1.1421L27.53,56,24.9942,54.567l-.0956-.1912.0539-.266.2781-.2346-1.8426-.1174-2.6274-.3589L19.3655,53.19l-.0869-.3286V51.6136l-.0382-.3929-.3425-.5571-.1-.2859-.5163-.558-.359-.5806-.325-.0261-.4807-.1191-.0817-.2747.2078-.0834-.0609-.3225-.1625-.2277-.6284-.11-.5476-.2955-.16-.3338-.3381-.6214-.3477-.3711h-.3668l-.5406-.2912-.5762-.23-.5824-.0695-.3807-.4259.08-.3042.2434-.9561.099-.2346V43.7l-.2033-.126-.0713-.412-.6432-1.1-.1782-.4233-.2025-.6327-.2086-.6893-.4285-.5893-.0739-.4259.1261-.6171h.1947l.2259-.1721.1278-.4154-.1017-.2738-.3424-.0635-.2764-.3772-.2973-.5223L10.5931,35.73l.0852-.2686.0782-.3007.0548-.2642-.75-.8275v-.3442l.0434-.0712.0348-.3825-.166-.511-.3007-.625-.3555-.5893-.259-.5606.14-.518.0817-.784.2373-.4085.0382-.8222-.1408-.4607-.2068-.5423L8.83,26.8634l.1165-.4668.2173-.6067.2347-.1043.0356-.13.4189-.3512.6745-1.5279.0313-.9926.2521-.73-.3581-.4616.1825-.8422.1069-1.1551.266-.4059,1.0768-1.6722.8588-1.7949.66-1.8634.4268-.8666.4233-1.3211.3224-.9109.7249-.2616-.1234-.0209-.2825.1565-.3833-.4833.0522-.505.38-.0426.1538-.385-.32-.1356.0348-.6432.4676-.0634-.2382-.2373-.21-.9926.0817-.3954V5.6385l-.2459-.4372.3389-1.382.4085.0965.34.4111.3433.3285.4155.2469.5788.2694.4268.0869.3772.1947.425.1243.1956-.0174V5.2873l.2208-.1851.3928-.2434.0748.2755.0173.1V4.911l.2286-.4581L19.5255,4.15,19.1891,3.48l.0678-.18.2564-.1468.6275.2138,1.2855.3563,1.1386.2521,2.6649.7579,3.0559.7562,2.0947.4867-.0008.0017,1.8565.3668v.0009l4.3849.9222,2.4441.4519,4.2936.7032,3.8939.53,3.8825.465,4.1111.4085,3.4524.2955,3.52.1721,2.4727.0791,3.7965.0782v-.0026l4.0442.0043L72.57,9.3906l.1712-.0573.35.0782.3042.1277.1147.7866.1912.7736.1643.1634h.6788l.0408.2034.8544.04v.2746h.46l.0287-.1234.1851-.1851.38-.0991.1843.1416H77.06l.5372.3573.6866.3111.2338.0487.05-.1008.3486-.1165.0782.45.2364.1174.0513-.0513.3068.0478v.2955l.2651.1017h.37l.1774-.0886.4354-.4346.4537-.0869.1825.4241h.03l.1312-.1043,1.2768-.0435.2251.3868.0731-.1147.7752-.0695-.1277.4867-.5615.26-1.2247.5449-.6258.2608-.3911.3259-.31.4659-.3189.5415-.2495.11-.6084.6744-.1825.0278-.3807.29.113.0783.345.0608.3573-.0747.9665-.4172.398-.2573.3321-.1269.385.3042-.2173.2173-.24.3911-.0521.1652.0156.0095.22-.1156.1695-.0313.4215.1252.0765.14.0287.0052.0878-.1608-.0018-.0026.0053-.0043.0278-.05.0165.0208.1556-.106.345-.1017.4207-.2694v-.1191l.1321-.13.804-.1347.3181-.2477.5371-.2564.0218-.1426.2807-.4276.2416-.1069.1678-.2294.3285-.3225.6032-.3286.6919-.073.2216.2217-.073.2433-.5015.1348-.1973.4085-.292.1008-.0592.2851-.3163.4215-.0261.2208.0669-.0713.5485-.4415.2068.2068.2947.0053.4545.1477.22.16.2026.419.3163.3155.4468-.0226.2381-.1591.2547.2069.1512.0478.1582-.0974h.146l.1808-.113.5415-.4867.4989-.1564.86-.04.5823-.2451.3668-.1843.3164.0426.007.7909.3467.0957,1.0118-.2651.17-.17.3259.1087v.9595l.3833.37.1765.0843.0843.0643-.0174-.0765-.1651-.0826.0782-.2885.28-.0348.35-.0322.0339.0435a2.8,2.8,0,0,0,.186.226c.0365.0191.0852.0721.1.2929l.0035.0478-.24.22-.5415-.0339-.0087-.0391-.2112.0487-.1234-.047-.4607-.0617-.2764.0782-.2981-.026-.4216.1981-.2833-.0026-.7579-.1695-.631.0244-.25.3424-.9648.0826-.2616.0869-.1391.3911-.24.2026-.1425-.0565-.1626-.1739-.5527.2955h-.1565l-.133-.1929-.226.5232L89.05,20.05l-.4433.9535.0035.0017-.1938.405-.239.2112-.27.605-.1617.2981.0157.1356.0573.0113.1252-.2147.19-.1017.1017-.2911.2616-.2486.9231-1.3759.2355-.1478.0835.2764-.0365.3555-.3851.9031-.3546.7474-.0643.41-.0722.3129.1017.1651-.0313.4216-.259.3268-.0547.1982.1616.943-.2112.365-.1025.3738-.1226.3781.1391.3155.0782.7979.2156.6058-.0313.4745.0547.7571.1826.3172.22.246.179.5093.1078.3494.01.0452.5094.14.1616.1078.0791-.0217.2616-.2364.3642-.2616.03-.0027.5223-.5041.0444-.3546.3129-.6779.2346-1.3846-.1929-.6154-.3824-.8517-.4894-.8153.0487-.4155.04-.106.093-.2781-.0583-.1391-.0834-.65.219-.5459.1391-.7753-.1026-.3259v-.226l.3216-.07.0556-.239-.0782-.1043.0409-.2051.2738-.2886.332-.1347.1321-.5571.3616-.1521.1938.1938-.1026.3963-.1608.2964v.4328l.3564-.2077-.0374-.6692-.0408-.2165.046-.3224.2434-.2912.3764-.0435.1529-.0478-.1564-.0365-.2034-.0608-.05-.6.4276-.3381.4519-.2808.4607.34.0608.03.0574-.0574h.4294l.7448.4607.5728.1895h.3911l.1913.3824.3711.3138-.0461.3711-.2651-.05-.0234.0234.0712.1869.1617.0991.2416.3476.0417,1.4124-.332.2208-.19.81-.4415.1686q-.0182.2979-.06.5936a1.3147,1.3147,0,0,0,.2608.1895l.1495.0591.0851-.0461.339-.4624.2616-.6892.5476-.2529.2634-.18.425.3.3311.4407L99.563,24.83l.4285,1.109.0556,1.2716-.3424.18-.1965-.0486-.0313-.0948-.0217-.0113-.1434.2869-.0295.53-.19.0522-.1634.1625.0269.6823-.2894.2451-.2607.46-.0391.2608.0825-.0122.64.3737.704-.0817.452.4129.2182-.0209.7414-.3459.3859-.0669.392-.0983.5128-.4989.471-.5058,1.4055-.8344-.0009-.0061.6319-.3885.1547-.0591.8909-.8587.0017.0226.2051-.1539.1565-.1321.1373-.22L106.8,26.29l.226-.2147.0747-.219.2912-.3711.1043-.0948-.013-.0678-.1469-.3476-.246-.0278-.2946-.9457.4719-.2894.585-.2.5484-.1765.4259-.066.8822-.0287.2607.1773.153.0191.2634-.1616.3746-.153.66-.0635.2417-.2068.2416-.4259.2434-.2868h.2981l.1842-.1069.0192-.2173-.1913-.2669-.05-.2546.1513-.2877v-.0756h-.1608l-.2825-.1252-.1391-.1912-.0321-.42.8-.7579.07-.093.1956-.3772L113.4,18.36l.3616-.4963.3-.339.3433-.2529.4259-.1634.7457-.1765.4207.0261.58-.193,1.0986-.3259.0018.0122,3.5435-.9213-.0174-.2929.03-.3407.2868-.3642.18.179.05-.1347.1678-.0191v-.0026l.3094-.0409.093.0252.0017-.23.1174-.764.3424-.6171.1773-.472-.24-.3024V11.288l.1165-.1452.0956-.32-.0243-.1782-.0287-.6666.2468-.6562.3894-1.1908.3068-.6136.25.0017.2573.0391v.2051l.1382.2443.2616.0582.0391-.0382V7.8852l.5667-.41.2695-.2686.2711.04.7979.3181.299.1565.0122.04,1.189,3.9h.7909l.1391.3476.0252.5928.2807.2225-.07-.1564.5527-.0983.3008.3347.3207.5154v.3016l-.306.6849-.2746.0869-.4363.3963-.6606.7562h-.2173a.1356.1356,0,0,1-.0374-.0052l.0652.1443-.146.13c-.0113.0956-.0217.1973-.0217.2164v.0435l-.0374.04c-.0139.0131-.0487.0452-.1729.0452-.0233,0-.0464-.0008-.07-.0026l-.0391-.0035-.1556-.1634-.1043.1243-.07.3825.05-.007.0269.0739v.1651l-.2086-.1043-.0956.0617.0548.2191-.3772.2-.0948-.1521-.01.0069-.0052-.033-.2025-.3251.04.3677-.2556.4128-.3555.0609-.0373.3616-.7632.4432-.2312.09-.1825-.1712-.3077.3572.1356.4346-.2164.1878-.0243.5415-.1695.9708-.0113-.0043-.1634.4737-.0713.0808.4433.67-.3382.73-.0286.1452.1677.2294.0921-.0669h.3173l.3442.3911.4936.7579.4059.0565.2634-.1138.1834-.1843-.08-.2694-.2025-.1548-.2173.1156-.2381-.3085.1538-.1539.3407-.0321.2868.1269.2834.3668.1373.4059.05.398-.6344.226-.49.239-.2477.2843h.2347l.2694.2242.0131-.0261.2251-.1217.0626-.3615.2277.0391.1651.6458-.252.1564-.617.0278Zm1.3133-8.9758.0157.0174.07-.0087ZM16.931,50.0873l.4216.2817.17.2772-.1373.31-.3251-.1173L16.72,50.45h-.0669v-.3173Zm-.0113.8692.3181.4554.2851.3625-.4745.0513L16.785,51.63l-.01-.0174a.8412.8412,0,0,1-.1216-.2816v-.3746ZM14.0046,47.48l.4285.3589.4823.2677-.2538.2425-.5527-.0347-.21-.3086-.0139-.0322-.0321.2982-.4737-.0209-.0878-.2521-.1139-.4085h.5215l.0834.1391-.0286-.07.252-.18Zm96.1413,31.36.2712.0417.106.2546-.5562.1652-.5458.17-.3686.1669-.2677-.2851.4676-.1017.1365-.0173.1834-.246.3624-.219ZM85.0811,13.4009l-.2955.1817-.3373-.2842.3034-.5059.2755-.1434.6545-.6762.3442-.1286.1607.23-.6979.9917-.4076.3355ZM18.66,4.7875l-.2-.3441-.0687-.3686.3329-.0373.0278.0869.0861-.1026h.3l.1226.259L19.12,4.46l.046.0695-.093.3007-.1851.0583a.3148.3148,0,0,1-.04.0026.1336.1336,0,0,1-.1-.0339.1027.1027,0,0,1-.03-.0722.1649.1649,0,0,1,.0217-.0756l-.0808.0782Z"/></svg>